<svg xmlns="http://www.w3.org/2000/svg" xmlns:xlink="http://www.w3.org/1999/xlink" viewBox="0 0 285.61 200"><defs><style>.cls-1{isolation:isolate;}.cls-2{fill:url(#radial-gradient);}.cls-3,.cls-4,.cls-5,.cls-7,.cls-8,.cls-9{mix-blend-mode:overlay;}.cls-3{opacity:0.5;fill:url(#radial-gradient-2);}.cls-4{opacity:0.3;fill:url(#radial-gradient-3);}.cls-5,.cls-9{opacity:0.2;}.cls-5{fill:url(#Degradado_sin_nombre_34);}.cls-6{fill:url(#radial-gradient-4);}.cls-7{fill:url(#radial-gradient-5);}.cls-8{opacity:0.4;fill:url(#radial-gradient-6);}.cls-9{fill:url(#Degradado_sin_nombre_34-2);}</style><radialGradient id="radial-gradient" cx="1421.82" cy="21.61" r="195.45" gradientTransform="matrix(-1, 0, 0, 1, 1485.19, 0)" gradientUnits="userSpaceOnUse"><stop offset="0" stop-color="#bad0d6"/><stop offset="0.2" stop-color="#9bbac2"/><stop offset="1" stop-color="#5d8bb8"/></radialGradient><radialGradient id="radial-gradient-2" cx="546.09" cy="-2324.28" r="22.94" gradientTransform="matrix(0.84, 1.15, 1.62, -1.31, 3367.35, -3632.05)" gradientUnits="userSpaceOnUse"><stop offset="0" stop-color="#fff"/><stop offset="0.1" stop-color="#fff" stop-opacity="0.85"/><stop offset="0.29" stop-color="#fff" stop-opacity="0.59"/><stop offset="0.47" stop-color="#fff" stop-opacity="0.38"/><stop offset="0.63" stop-color="#fff" stop-opacity="0.22"/><stop offset="0.78" stop-color="#fff" stop-opacity="0.1"/><stop offset="0.91" stop-color="#fff" stop-opacity="0.03"/><stop offset="1" stop-color="#fff" stop-opacity="0"/></radialGradient><radialGradient id="radial-gradient-3" cx="613.8" cy="-2290.3" r="12.61" xlink:href="#radial-gradient-2"/><radialGradient id="Degradado_sin_nombre_34" cx="1422.92" cy="147.6" r="13.18" gradientTransform="matrix(-0.71, -0.46, -1.4, 1.83, 1427.69, 510.37)" xlink:href="#radial-gradient-2"/><radialGradient id="radial-gradient-4" cx="1478.73" cy="64.17" r="195.45" gradientTransform="matrix(-1, 0, 0, 1, 1485.19, 0)" gradientUnits="userSpaceOnUse"><stop offset="0" stop-color="#fff"/><stop offset="0.2" stop-color="#d9f7ff"/><stop offset="1" stop-color="#89c0f5"/></radialGradient><radialGradient id="radial-gradient-5" cx="544.13" cy="-2358.42" r="22.93" xlink:href="#radial-gradient-2"/><radialGradient id="radial-gradient-6" cx="611.84" cy="-2324.45" r="12.6" xlink:href="#radial-gradient-2"/><radialGradient id="Degradado_sin_nombre_34-2" cx="1480.39" cy="213.7" r="13.18" gradientTransform="matrix(-0.71, -0.46, -1.4, 1.83, 1503.83, 458.22)" xlink:href="#radial-gradient-2"/></defs><g class="cls-1"><g id="Clouds"><path class="cls-2" d="M92.88,0a78.75,78.75,0,0,1,76.5,60.16,51.19,51.19,0,1,1,22.26,97.28H92.88A78.72,78.72,0,0,1,92.88,0Z" transform="translate(42.75)"/><path class="cls-3" d="M82.8,75.22c20.49-16.63,28.5-41.95,17.87-56.55s-35.86-13-56.37,3.64-28.49,42-17.87,56.56S62.3,91.84,82.8,75.22Z" transform="translate(42.75)"/><path class="cls-4" d="M186,96.82c11.26-9.14,15.66-23.06,9.82-31.08s-19.71-7.13-31,2S149.13,90.8,155,98.82,174.68,106,186,96.82Z" transform="translate(42.75)"/><path class="cls-5" d="M210.94,116.73c12.39-12.53,25.18-17.43,28.59-11s-3.89,21.89-16.28,34.43-25.19,17.43-28.59,10.95S198.55,129.26,210.94,116.73Z" transform="translate(42.75)"/><path class="cls-6" d="M36,42.56a78.75,78.75,0,0,1,76.5,60.16A51.19,51.19,0,1,1,134.73,200H36A78.72,78.72,0,0,1,36,42.56Z" transform="translate(42.75)"/><path class="cls-7" d="M25.89,117.78c20.49-16.63,28.5-41.94,17.87-56.55s-35.86-13-56.37,3.64-28.49,42-17.87,56.56S5.39,134.41,25.89,117.78Z" transform="translate(42.75)"/><path class="cls-8" d="M129,139.38c11.26-9.14,15.67-23,9.83-31.08s-19.72-7.13-31,2-15.65,23.06-9.82,31.08S117.77,148.52,129,139.38Z" transform="translate(42.75)"/><path class="cls-9" d="M154,159.29c12.39-12.53,25.18-17.43,28.59-10.95s-3.89,21.89-16.28,34.43-25.19,17.43-28.6,10.95S141.63,171.82,154,159.29Z" transform="translate(42.75)"/></g></g></svg>