<svg xmlns="http://www.w3.org/2000/svg" xmlns:xlink="http://www.w3.org/1999/xlink" viewBox="0 0 200.01 200"><defs><style>.cls-1{isolation:isolate;}.cls-2{fill:url(#radial-gradient);}.cls-3{fill:#fff;opacity:0.5;}.cls-3,.cls-7,.cls-8{mix-blend-mode:overlay;}.cls-4{fill:url(#radial-gradient-2);}.cls-5{fill:#b0b1b6;}.cls-6{fill:#5d5e61;}.cls-7{fill:url(#radial-gradient-3);}.cls-8{opacity:0.4;fill:url(#Degradado_sin_nombre_34);}</style><radialGradient id="radial-gradient" cx="-1871.32" cy="37.3" r="189.84" gradientTransform="translate(1948.24)" gradientUnits="userSpaceOnUse"><stop offset="0" stop-color="#fcfcfc"/><stop offset="0.16" stop-color="#f1edf5"/><stop offset="1" stop-color="#9fa1a6"/></radialGradient><radialGradient id="radial-gradient-2" cx="211.93" cy="-24.81" r="168.5" gradientUnits="userSpaceOnUse"><stop offset="0" stop-color="#fcfcfc"/><stop offset="0.16" stop-color="#adaab0"/><stop offset="1" stop-color="#6b6d70"/></radialGradient><radialGradient id="radial-gradient-3" cx="298.24" cy="-2337.23" r="28.5" gradientTransform="matrix(1.2, 0.78, 1.04, -1.81, 2127.88, -4382.15)" gradientUnits="userSpaceOnUse"><stop offset="0" stop-color="#fff"/><stop offset="0.1" stop-color="#fff" stop-opacity="0.85"/><stop offset="0.29" stop-color="#fff" stop-opacity="0.59"/><stop offset="0.47" stop-color="#fff" stop-opacity="0.38"/><stop offset="0.63" stop-color="#fff" stop-opacity="0.22"/><stop offset="0.78" stop-color="#fff" stop-opacity="0.1"/><stop offset="0.91" stop-color="#fff" stop-opacity="0.03"/><stop offset="1" stop-color="#fff" stop-opacity="0"/></radialGradient><radialGradient id="Degradado_sin_nombre_34" cx="-4244.19" cy="4467.64" r="27.5" gradientTransform="matrix(1.46, -0.67, 0.02, -0.76, 6252.68, 722.06)" xlink:href="#radial-gradient-3"/></defs><g class="cls-1"><g id="Moon"><path class="cls-2" d="M199.79,100A100,100,0,1,1,99.79,0,100,100,0,0,1,199.79,100Z" transform="translate(0.21)"/><path class="cls-3" d="M85.3,69.3a100,100,0,0,0,87.34,99.17,100.18,100.18,0,0,0,6.74-7.94A100,100,0,0,0,111.33,2,99.63,99.63,0,0,0,85.3,69.3Z" transform="translate(0.21)"/><path class="cls-4" d="M112.23.8a100,100,0,0,0,61.53,166.49A100,100,0,0,0,112.23.8Z" transform="translate(0.21)"/><path class="cls-5" d="M29.91,117.7c9.4-.85,16.12-11.51,15-23.82s-9.62-21.59-19-20.74-16.11,11.51-15,23.8S20.52,118.54,29.91,117.7Z" transform="translate(0.21)"/><path class="cls-5" d="M21.77,126.64c-5.64,3-7,11.33-3.18,18.7s11.56,10.94,17.2,8,7-11.33,3.18-18.69S27.39,123.69,21.77,126.64Z" transform="translate(0.21)"/><path class="cls-5" d="M44.07,117.75c-3.33,1.75-4.17,6.7-1.88,11.05s6.83,6.47,10.16,4.72,4.16-6.69,1.88-11S47.4,116,44.07,117.75Z" transform="translate(0.21)"/><path class="cls-6" d="M192.15,103.62c-1.72-12.23-10.69-21.08-20-19.76s-15.51,12.3-13.78,24.53,10.7,21.08,20,19.76S193.88,115.85,192.15,103.62Z" transform="translate(0.21)"/><path class="cls-6" d="M179.8,74.51c5.47-3.24,6.47-11.67,2.23-18.83s-12.11-10.35-17.58-7.11S158,60.23,162.22,67.39,174.32,77.75,179.8,74.51Z" transform="translate(0.21)"/><path class="cls-6" d="M159.29,73.38c-2.51-4.23-7.15-6.11-10.39-4.2s-3.82,6.9-1.32,11.13,7.16,6.11,10.39,4.2S161.79,77.62,159.29,73.38Z" transform="translate(0.21)"/><path class="cls-7" d="M84.85,90.57C101.22,62.15,99.26,29.22,80.43,17s-47.38.9-63.78,29.3-14.39,61.35,4.42,73.56S68.46,119,84.85,90.57Z" transform="translate(0.21)"/><path class="cls-8" d="M187.93,141.86c.34-11.56-17.37-12.69-39.58-2.54s-40.47,27.76-40.82,39.32,17.37,12.69,39.59,2.54S187.58,153.4,187.93,141.86Z" transform="translate(0.21)"/></g></g></svg>