<svg xmlns="http://www.w3.org/2000/svg" xmlns:xlink="http://www.w3.org/1999/xlink" viewBox="0 0 200 200"><defs><style>.cls-1{isolation:isolate;}.cls-2{fill:url(#radial-gradient);}.cls-3,.cls-4{mix-blend-mode:overlay;}.cls-3{fill:url(#radial-gradient-2);}.cls-4{opacity:0.4;fill:url(#Degradado_sin_nombre_34);}.cls-5{fill:url(#radial-gradient-3);}.cls-6{fill:url(#radial-gradient-4);}.cls-7{fill:url(#radial-gradient-5);}.cls-8{fill:url(#radial-gradient-6);}.cls-9{fill:url(#radial-gradient-7);}.cls-10{fill:url(#radial-gradient-8);}.cls-11{fill:url(#radial-gradient-9);}.cls-12{fill:url(#radial-gradient-10);}</style><radialGradient id="radial-gradient" cx="-88.78" cy="60.54" r="119.46" gradientTransform="matrix(-1, 0, 0, 1, 25.67, 0)" gradientUnits="userSpaceOnUse"><stop offset="0" stop-color="#fff8c7"/><stop offset="0.16" stop-color="#ffe436"/><stop offset="1" stop-color="#fe761c"/></radialGradient><radialGradient id="radial-gradient-2" cx="1132.64" cy="-1827.11" r="17.93" gradientTransform="matrix(-0.84, 1.15, -1.62, -1.31, -1882.16, -3632.05)" gradientUnits="userSpaceOnUse"><stop offset="0" stop-color="#fff"/><stop offset="0.1" stop-color="#fff" stop-opacity="0.85"/><stop offset="0.29" stop-color="#fff" stop-opacity="0.59"/><stop offset="0.47" stop-color="#fff" stop-opacity="0.38"/><stop offset="0.63" stop-color="#fff" stop-opacity="0.22"/><stop offset="0.78" stop-color="#fff" stop-opacity="0.1"/><stop offset="0.91" stop-color="#fff" stop-opacity="0.03"/><stop offset="1" stop-color="#fff" stop-opacity="0"/></radialGradient><radialGradient id="Degradado_sin_nombre_34" cx="-2925.96" cy="2927.39" r="17.3" gradientTransform="matrix(-1.17, -1.1, 0.22, -0.73, -4013.51, -955.63)" xlink:href="#radial-gradient-2"/><radialGradient id="radial-gradient-3" cx="101.45" cy="3.86" r="20.79" gradientTransform="matrix(1, 0, 0, 1, 0, 0)" xlink:href="#radial-gradient"/><radialGradient id="radial-gradient-4" cx="501.64" cy="-232.98" r="20.79" gradientTransform="translate(-156.91 550.48) rotate(-45)" xlink:href="#radial-gradient"/><radialGradient id="radial-gradient-5" cx="951.99" cy="-117.66" r="20.79" gradientTransform="translate(121.58 1050.6) rotate(-90)" xlink:href="#radial-gradient"/><radialGradient id="radial-gradient-6" cx="1188.99" cy="282.52" r="20.79" gradientTransform="translate(672.06 1207.51) rotate(-135)" xlink:href="#radial-gradient"/><radialGradient id="radial-gradient-7" cx="1073.5" cy="732.88" r="20.79" gradientTransform="translate(1172.18 929.03) rotate(180)" xlink:href="#radial-gradient"/><radialGradient id="radial-gradient-8" cx="673.48" cy="969.88" r="20.79" gradientTransform="translate(1329.09 378.55) rotate(135)" xlink:href="#radial-gradient"/><radialGradient id="radial-gradient-9" cx="222.96" cy="854.4" r="20.79" gradientTransform="translate(1050.61 -121.57) rotate(90)" xlink:href="#radial-gradient"/><radialGradient id="radial-gradient-10" cx="-13.87" cy="454.38" r="20.79" gradientTransform="translate(500.13 -278.49) rotate(45)" xlink:href="#radial-gradient"/></defs><g class="cls-1"><g id="Sun"><path class="cls-2" d="M37.13,100a62.93,62.93,0,1,0,62.93-62.92A62.92,62.92,0,0,0,37.13,100Z" transform="translate(-0.06)"/><path class="cls-3" d="M109.65,93.52c-16-13-22.29-32.8-14-44.22s28-10.14,44.08,2.85S162,85,153.72,96.37,125.67,106.51,109.65,93.52Z" transform="translate(-0.06)"/><path class="cls-4" d="M44.44,113.9c2.13-7,12.91-4.07,24.11,6.45S87.11,145,85,152s-12.91,4.07-24.11-6.45S42.32,120.85,44.44,113.9Z" transform="translate(-0.06)"/><path class="cls-5" d="M107.69,18.46a7.63,7.63,0,0,1-7.63,7.64h0a7.63,7.63,0,0,1-7.63-7.64V7.63A7.62,7.62,0,0,1,100.06,0h0a7.62,7.62,0,0,1,7.63,7.63Z" transform="translate(-0.06)"/><path class="cls-6" d="M47.8,37a7.63,7.63,0,0,1,0,10.79h0a7.63,7.63,0,0,1-10.79,0l-7.66-7.66a7.63,7.63,0,0,1,0-10.79h0a7.64,7.64,0,0,1,10.8,0Z" transform="translate(-0.06)"/><path class="cls-7" d="M18.52,92.37A7.63,7.63,0,0,1,26.16,100h0a7.63,7.63,0,0,1-7.64,7.63H7.7A7.63,7.63,0,0,1,.06,100h0A7.63,7.63,0,0,1,7.7,92.37Z" transform="translate(-0.06)"/><path class="cls-8" d="M37,152.26a7.61,7.61,0,0,1,10.79,0h0a7.61,7.61,0,0,1,0,10.79l-7.65,7.66a7.64,7.64,0,0,1-10.8,0h0a7.63,7.63,0,0,1,0-10.79Z" transform="translate(-0.06)"/><path class="cls-9" d="M92.43,181.54a7.64,7.64,0,0,1,7.63-7.64h0a7.63,7.63,0,0,1,7.63,7.64v10.82a7.64,7.64,0,0,1-7.64,7.64h0a7.64,7.64,0,0,1-7.63-7.64Z" transform="translate(-0.06)"/><path class="cls-10" d="M152.32,163.05a7.62,7.62,0,0,1,0-10.79h0a7.61,7.61,0,0,1,10.79,0l7.66,7.65a7.65,7.65,0,0,1,0,10.8h0a7.63,7.63,0,0,1-10.8,0Z" transform="translate(-0.06)"/><path class="cls-11" d="M181.6,107.63A7.62,7.62,0,0,1,174,100h0a7.63,7.63,0,0,1,7.63-7.64h10.83a7.63,7.63,0,0,1,7.63,7.63h0a7.63,7.63,0,0,1-7.63,7.64Z" transform="translate(-0.06)"/><path class="cls-12" d="M163.11,47.74a7.63,7.63,0,0,1-10.79,0h0a7.61,7.61,0,0,1,0-10.79L160,29.29a7.64,7.64,0,0,1,10.8,0h0a7.63,7.63,0,0,1,0,10.79Z" transform="translate(-0.06)"/></g></g></svg>