<svg xmlns="http://www.w3.org/2000/svg" xmlns:xlink="http://www.w3.org/1999/xlink" viewBox="0 0 290.51 200"><defs><style>.cls-1{isolation:isolate;}.cls-2{fill:url(#radial-gradient);}.cls-3,.cls-4,.cls-5{mix-blend-mode:overlay;}.cls-3{fill:url(#radial-gradient-2);}.cls-4{opacity:0.4;fill:url(#radial-gradient-3);}.cls-5{opacity:0.2;fill:url(#Degradado_sin_nombre_34);}</style><radialGradient id="radial-gradient" cx="1467.88" cy="27.45" r="248.29" gradientTransform="matrix(-1, 0, 0, 1, 1485.19, 0)" gradientUnits="userSpaceOnUse"><stop offset="0" stop-color="#fff"/><stop offset="0.2" stop-color="#d9f7ff"/><stop offset="1" stop-color="#89c0f5"/></radialGradient><radialGradient id="radial-gradient-2" cx="532.93" cy="-2345.88" r="29.14" gradientTransform="matrix(0.84, 1.15, 1.62, -1.31, 3367.35, -3632.05)" gradientUnits="userSpaceOnUse"><stop offset="0" stop-color="#fff"/><stop offset="0.1" stop-color="#fff" stop-opacity="0.85"/><stop offset="0.29" stop-color="#fff" stop-opacity="0.59"/><stop offset="0.47" stop-color="#fff" stop-opacity="0.38"/><stop offset="0.63" stop-color="#fff" stop-opacity="0.22"/><stop offset="0.78" stop-color="#fff" stop-opacity="0.1"/><stop offset="0.91" stop-color="#fff" stop-opacity="0.03"/><stop offset="1" stop-color="#fff" stop-opacity="0"/></radialGradient><radialGradient id="radial-gradient-3" cx="618.94" cy="-2302.72" r="16.01" xlink:href="#radial-gradient-2"/><radialGradient id="Degradado_sin_nombre_34" cx="1421.48" cy="192.69" r="16.74" gradientTransform="matrix(-0.71, -0.46, -1.4, 1.83, 1485.26, 461.86)" xlink:href="#radial-gradient-2"/></defs><g class="cls-1"><g id="Cloud"><path class="cls-2" d="M54.79,0A100,100,0,0,1,152,76.42,65,65,0,1,1,180.25,200H54.79a100,100,0,0,1,0-200Z" transform="translate(45.21)"/><path class="cls-3" d="M42,95.56c26-21.13,36.2-53.29,22.7-71.85S19.13,7.23-6.92,28.34s-36.19,53.3-22.7,71.85S16,116.67,42,95.56Z" transform="translate(45.21)"/><path class="cls-4" d="M173,123c14.31-11.61,19.9-29.28,12.48-39.48s-25-9.06-39.36,2.54-19.88,29.29-12.47,39.49S158.7,134.6,173,123Z" transform="translate(45.21)"/><path class="cls-5" d="M204.76,148.28c15.75-15.92,32-22.14,36.33-13.9s-4.94,27.8-20.68,43.73-32,22.15-36.33,13.91S189,164.2,204.76,148.28Z" transform="translate(45.21)"/></g></g></svg>