<svg xmlns="http://www.w3.org/2000/svg" xmlns:xlink="http://www.w3.org/1999/xlink" viewBox="0 0 224.69 200"><defs><style>.cls-1{isolation:isolate;}.cls-2{fill:url(#radial-gradient);}.cls-15,.cls-16,.cls-17,.cls-20,.cls-21,.cls-22,.cls-3,.cls-4{mix-blend-mode:overlay;}.cls-3{fill:url(#radial-gradient-2);}.cls-16,.cls-21,.cls-4{opacity:0.4;}.cls-4{fill:url(#Degradado_sin_nombre_34);}.cls-5{fill:url(#radial-gradient-3);}.cls-6{fill:url(#radial-gradient-4);}.cls-7{fill:url(#radial-gradient-5);}.cls-8{fill:url(#radial-gradient-6);}.cls-9{fill:url(#radial-gradient-7);}.cls-10{fill:url(#radial-gradient-8);}.cls-11{fill:url(#radial-gradient-9);}.cls-12{fill:url(#radial-gradient-10);}.cls-13{fill:url(#radial-gradient-11);}.cls-14{fill:url(#radial-gradient-12);}.cls-15{fill:url(#radial-gradient-13);}.cls-16{fill:url(#radial-gradient-14);}.cls-17,.cls-22{opacity:0.2;}.cls-17{fill:url(#Degradado_sin_nombre_34-2);}.cls-18{fill:url(#radial-gradient-15);}.cls-19{fill:url(#radial-gradient-16);}.cls-20{fill:url(#radial-gradient-17);}.cls-21{fill:url(#radial-gradient-18);}.cls-22{fill:url(#Degradado_sin_nombre_34-3);}</style><radialGradient id="radial-gradient" cx="-79.16" cy="60.54" r="119.46" gradientTransform="matrix(-1, 0, 0, 1, 25.67, 0)" gradientUnits="userSpaceOnUse"><stop offset="0" stop-color="#fff8c7"/><stop offset="0.16" stop-color="#ffe436"/><stop offset="1" stop-color="#fe761c"/></radialGradient><radialGradient id="radial-gradient-2" cx="1136.89" cy="-1823.38" r="17.93" gradientTransform="matrix(-0.84, 1.15, -1.62, -1.31, -1882.16, -3632.05)" gradientUnits="userSpaceOnUse"><stop offset="0" stop-color="#fff"/><stop offset="0.1" stop-color="#fff" stop-opacity="0.85"/><stop offset="0.29" stop-color="#fff" stop-opacity="0.59"/><stop offset="0.47" stop-color="#fff" stop-opacity="0.38"/><stop offset="0.63" stop-color="#fff" stop-opacity="0.22"/><stop offset="0.78" stop-color="#fff" stop-opacity="0.1"/><stop offset="0.91" stop-color="#fff" stop-opacity="0.03"/><stop offset="1" stop-color="#fff" stop-opacity="0"/></radialGradient><radialGradient id="Degradado_sin_nombre_34" cx="-2919.58" cy="2917.74" r="17.3" gradientTransform="matrix(-1.17, -1.1, 0.22, -0.73, -4013.51, -955.63)" xlink:href="#radial-gradient-2"/><radialGradient id="radial-gradient-3" cx="91.83" cy="3.86" r="20.79" gradientTransform="matrix(1, 0, 0, 1, 0, 0)" xlink:href="#radial-gradient"/><radialGradient id="radial-gradient-4" cx="494.84" cy="-239.78" r="20.79" gradientTransform="translate(-156.91 550.48) rotate(-45)" xlink:href="#radial-gradient"/><radialGradient id="radial-gradient-5" cx="951.99" cy="-127.28" r="20.79" gradientTransform="translate(121.58 1050.6) rotate(-90)" xlink:href="#radial-gradient"/><radialGradient id="radial-gradient-6" cx="1195.79" cy="275.72" r="20.79" gradientTransform="translate(672.06 1207.51) rotate(-135)" xlink:href="#radial-gradient"/><radialGradient id="radial-gradient-7" cx="1083.12" cy="732.88" r="20.79" gradientTransform="translate(1172.18 929.03) rotate(180)" xlink:href="#radial-gradient"/><radialGradient id="radial-gradient-8" cx="680.28" cy="976.68" r="20.79" gradientTransform="translate(1329.09 378.55) rotate(135)" xlink:href="#radial-gradient"/><radialGradient id="radial-gradient-9" cx="222.96" cy="864.01" r="20.78" gradientTransform="translate(1050.61 -121.57) rotate(90)" xlink:href="#radial-gradient"/><radialGradient id="radial-gradient-10" cx="-20.67" cy="461.18" r="20.79" gradientTransform="translate(500.13 -278.49) rotate(45)" xlink:href="#radial-gradient"/><radialGradient id="radial-gradient-11" cx="1466.12" cy="124.86" r="108.12" gradientTransform="matrix(-1, 0, 0, 1, 1485.19, 0)" gradientUnits="userSpaceOnUse"><stop offset="0" stop-color="#fff"/><stop offset="0.2" stop-color="#d9f7ff"/><stop offset="1" stop-color="#89c0f5"/></radialGradient><radialGradient id="radial-gradient-12" cx="54.1" cy="124.07" r="92.35" gradientUnits="userSpaceOnUse"><stop offset="0" stop-color="#ffe436"/><stop offset="0.08" stop-color="#ffcf31" stop-opacity="0.81"/><stop offset="0.18" stop-color="#ffb72b" stop-opacity="0.6"/><stop offset="0.28" stop-color="#fea327" stop-opacity="0.41"/><stop offset="0.38" stop-color="#fe9323" stop-opacity="0.26"/><stop offset="0.48" stop-color="#fe8620" stop-opacity="0.15"/><stop offset="0.58" stop-color="#fe7d1e" stop-opacity="0.07"/><stop offset="0.68" stop-color="#fe781c" stop-opacity="0.02"/><stop offset="0.77" stop-color="#fe761c" stop-opacity="0"/></radialGradient><radialGradient id="radial-gradient-13" cx="576.14" cy="-2367.28" r="12.69" gradientTransform="matrix(0.84, 1.15, 1.62, -1.31, 3367.35, -3632.05)" xlink:href="#radial-gradient-2"/><radialGradient id="radial-gradient-14" cx="613.6" cy="-2348.48" r="6.97" gradientTransform="matrix(0.84, 1.15, 1.62, -1.31, 3367.35, -3632.05)" xlink:href="#radial-gradient-2"/><radialGradient id="Degradado_sin_nombre_34-2" cx="1542.55" cy="241.98" r="7.29" gradientTransform="matrix(-0.71, -0.46, -1.4, 1.83, 1531.19, 447.86)" xlink:href="#radial-gradient-2"/><radialGradient id="radial-gradient-15" cx="-697.81" cy="72.23" r="85.74" gradientTransform="translate(891.36)" xlink:href="#radial-gradient-11"/><radialGradient id="radial-gradient-16" cx="110.14" cy="99.16" r="114.95" xlink:href="#radial-gradient-12"/><radialGradient id="radial-gradient-17" cx="1502.5" cy="-1510.67" r="10.06" gradientTransform="matrix(-0.84, 1.15, -1.62, -1.31, -990.8, -3632.05)" xlink:href="#radial-gradient-2"/><radialGradient id="radial-gradient-18" cx="1532.2" cy="-1495.76" r="5.53" gradientTransform="matrix(-0.84, 1.15, -1.62, -1.31, -990.8, -3632.05)" xlink:href="#radial-gradient-2"/><radialGradient id="Degradado_sin_nombre_34-3" cx="-919.09" cy="-293.21" r="5.78" gradientTransform="matrix(0.71, -0.46, 1.4, 1.83, 1184.93, 234.78)" xlink:href="#radial-gradient-2"/></defs><g class="cls-1"><g id="Sun-Clouds"><path class="cls-2" d="M27.51,100A62.93,62.93,0,1,0,90.44,37.07,62.94,62.94,0,0,0,27.51,100Z" transform="translate(9.56)"/><path class="cls-3" d="M100,93.52c-16-13-22.28-32.8-14-44.22s28.05-10.14,44.08,2.85,22.28,32.8,14,44.22S116.06,106.51,100,93.52Z" transform="translate(9.56)"/><path class="cls-4" d="M34.82,113.9c2.13-7,12.92-4.07,24.12,6.45S77.49,145,75.38,152s-12.91,4.07-24.12-6.45S32.71,120.85,34.82,113.9Z" transform="translate(9.56)"/><path class="cls-5" d="M98.08,18.46a7.64,7.64,0,0,1-7.64,7.64h0a7.64,7.64,0,0,1-7.63-7.64V7.63A7.63,7.63,0,0,1,90.44,0h0a7.63,7.63,0,0,1,7.64,7.63Z" transform="translate(9.56)"/><path class="cls-6" d="M38.19,37a7.63,7.63,0,0,1,0,10.79h0a7.64,7.64,0,0,1-10.8,0l-7.65-7.66a7.62,7.62,0,0,1,0-10.79h0a7.64,7.64,0,0,1,10.8,0Z" transform="translate(9.56)"/><path class="cls-7" d="M8.91,92.37A7.62,7.62,0,0,1,16.54,100h0a7.62,7.62,0,0,1-7.63,7.63H-1.92A7.64,7.64,0,0,1-9.56,100h0a7.63,7.63,0,0,1,7.64-7.63Z" transform="translate(9.56)"/><path class="cls-8" d="M27.39,152.26a7.62,7.62,0,0,1,10.8,0h0a7.63,7.63,0,0,1,0,10.79l-7.66,7.66a7.63,7.63,0,0,1-10.79,0h0a7.62,7.62,0,0,1,0-10.8Z" transform="translate(9.56)"/><path class="cls-9" d="M82.81,181.54a7.64,7.64,0,0,1,7.63-7.64h0a7.64,7.64,0,0,1,7.64,7.64v10.82A7.64,7.64,0,0,1,90.45,200h0a7.63,7.63,0,0,1-7.63-7.64Z" transform="translate(9.56)"/><path class="cls-10" d="M142.7,163.05a7.63,7.63,0,0,1,0-10.79h0a7.62,7.62,0,0,1,10.8,0l7.65,7.65a7.63,7.63,0,0,1,0,10.8h0a7.64,7.64,0,0,1-10.8,0Z" transform="translate(9.56)"/><path class="cls-11" d="M172,107.63a7.62,7.62,0,0,1-7.63-7.63h0A7.63,7.63,0,0,1,172,92.36h10.83a7.64,7.64,0,0,1,7.64,7.63h0a7.64,7.64,0,0,1-7.64,7.64Z" transform="translate(9.56)"/><path class="cls-12" d="M153.49,47.74a7.63,7.63,0,0,1-10.79,0h0a7.64,7.64,0,0,1,0-10.8l7.66-7.65a7.64,7.64,0,0,1,10.79,0h0a7.63,7.63,0,0,1,0,10.8Z" transform="translate(9.56)"/><path class="cls-13" d="M35.4,112.91a43.54,43.54,0,0,1,42.31,33.28A28.32,28.32,0,1,1,90,200H35.4a43.55,43.55,0,1,1,0-87.09Z" transform="translate(9.56)"/><path class="cls-14" d="M35.4,112.91a43.54,43.54,0,0,1,42.31,33.28A28.32,28.32,0,1,1,90,200H35.4a43.55,43.55,0,1,1,0-87.09Z" transform="translate(9.56)"/><path class="cls-15" d="M29.82,154.52c11.33-9.2,15.76-23.21,9.89-31.29s-19.85-7.17-31.19,2-15.76,23.21-9.89,31.28S18.48,163.72,29.82,154.52Z" transform="translate(9.56)"/><path class="cls-16" d="M86.88,166.47c6.22-5.06,8.66-12.76,5.43-17.2s-10.91-4-17.14,1.11-8.66,12.76-5.43,17.19S80.64,171.52,86.88,166.47Z" transform="translate(9.56)"/><path class="cls-17" d="M100.7,177.48c6.86-6.93,13.93-9.64,15.82-6.06s-2.15,12.11-9,19.05-13.93,9.64-15.81,6.06S93.85,184.41,100.7,177.48Z" transform="translate(9.56)"/><path class="cls-18" d="M180.6,62.75a34.54,34.54,0,0,0-33.55,26.39,22.46,22.46,0,1,0-9.77,42.67H180.6a34.53,34.53,0,1,0,0-69.06Z" transform="translate(9.56)"/><path class="cls-19" d="M180.6,62.75a34.54,34.54,0,0,0-33.55,26.39,22.46,22.46,0,1,0-9.77,42.67H180.6a34.53,34.53,0,1,0,0-69.06Z" transform="translate(9.56)"/><path class="cls-20" d="M185,95.75c-9-7.3-12.51-18.41-7.84-24.81s15.73-5.69,24.73,1.59,12.49,18.41,7.83,24.82S194,103,185,95.75Z" transform="translate(9.56)"/><path class="cls-21" d="M139.78,105.22c-4.94-4-6.87-10.11-4.31-13.63s8.65-3.13,13.59.87,6.87,10.12,4.31,13.64S144.72,109.23,139.78,105.22Z" transform="translate(9.56)"/><path class="cls-22" d="M128.82,114c-5.44-5.5-11-7.65-12.55-4.81s1.71,9.61,7.14,15.11,11.05,7.64,12.54,4.8S134.25,119.45,128.82,114Z" transform="translate(9.56)"/></g></g></svg>