<svg xmlns="http://www.w3.org/2000/svg" xmlns:xlink="http://www.w3.org/1999/xlink" viewBox="0 0 240.5 200"><defs><style>.cls-1{isolation:isolate;}.cls-2{fill:url(#radial-gradient);}.cls-3{fill:#b0b1b6;}.cls-4,.cls-5,.cls-7,.cls-8,.cls-9{mix-blend-mode:overlay;}.cls-4{fill:url(#radial-gradient-2);}.cls-5{opacity:0.4;fill:url(#Degradado_sin_nombre_34);}.cls-6{fill:url(#radial-gradient-3);}.cls-7{opacity:0.5;fill:url(#radial-gradient-4);}.cls-8{opacity:0.3;fill:url(#radial-gradient-5);}.cls-9{opacity:0.2;fill:url(#Degradado_sin_nombre_34-2);}</style><radialGradient id="radial-gradient" cx="-132.39" cy="31.42" r="159.91" gradientTransform="matrix(-1, 0, 0, 1, 25.67, 0)" gradientUnits="userSpaceOnUse"><stop offset="0" stop-color="#fcfcfc"/><stop offset="0.16" stop-color="#f1edf5"/><stop offset="1" stop-color="#9fa1a6"/></radialGradient><radialGradient id="radial-gradient-2" cx="1098.22" cy="-1838.36" r="24" gradientTransform="matrix(-0.84, 1.15, -1.62, -1.31, -1882.16, -3632.05)" gradientUnits="userSpaceOnUse"><stop offset="0" stop-color="#fff"/><stop offset="0.1" stop-color="#fff" stop-opacity="0.85"/><stop offset="0.29" stop-color="#fff" stop-opacity="0.59"/><stop offset="0.47" stop-color="#fff" stop-opacity="0.38"/><stop offset="0.63" stop-color="#fff" stop-opacity="0.22"/><stop offset="0.78" stop-color="#fff" stop-opacity="0.1"/><stop offset="0.91" stop-color="#fff" stop-opacity="0.03"/><stop offset="1" stop-color="#fff" stop-opacity="0"/></radialGradient><radialGradient id="Degradado_sin_nombre_34" cx="-2942.79" cy="2959.15" r="23.16" gradientTransform="matrix(-1.17, -1.1, 0.22, -0.73, -4013.51, -955.63)" xlink:href="#radial-gradient-2"/><radialGradient id="radial-gradient-3" cx="1457.09" cy="74.27" r="180.92" gradientTransform="matrix(-1, 0, 0, 1, 1485.19, 0)" gradientUnits="userSpaceOnUse"><stop offset="0" stop-color="#bad0d6"/><stop offset="0.2" stop-color="#9bbac2"/><stop offset="1" stop-color="#5d8bb8"/></radialGradient><radialGradient id="radial-gradient-4" cx="558.09" cy="-2352.3" r="21.23" gradientTransform="matrix(0.84, 1.15, 1.62, -1.31, 3367.35, -3632.05)" xlink:href="#radial-gradient-2"/><radialGradient id="radial-gradient-5" cx="620.77" cy="-2320.86" r="11.67" gradientTransform="matrix(0.84, 1.15, 1.62, -1.31, 3367.35, -3632.05)" xlink:href="#radial-gradient-2"/><radialGradient id="Degradado_sin_nombre_34-2" cx="1468.21" cy="214.29" r="12.2" gradientTransform="matrix(-0.71, -0.46, -1.4, 1.83, 1506.26, 453.72)" xlink:href="#radial-gradient-2"/></defs><g class="cls-1"><g id="Moon-Cloud"><path class="cls-2" d="M54.56,84.24A84.24,84.24,0,1,0,138.8,0,84.24,84.24,0,0,0,54.56,84.24Z" transform="translate(17.46)"/><path class="cls-3" d="M79.94,99.14c7.92-.71,13.57-9.69,12.64-20.06s-8.1-18.18-16-17.47S63,71.3,63.92,81.66,72,99.85,79.94,99.14Z" transform="translate(17.46)"/><path class="cls-3" d="M73.08,106.67c-4.75,2.49-5.94,9.55-2.68,15.75s9.74,9.22,14.49,6.74,5.93-9.55,2.68-15.75S77.82,104.19,73.08,106.67Z" transform="translate(17.46)"/><path class="cls-3" d="M91.87,99.19c-2.81,1.47-3.51,5.63-1.59,9.3s5.76,5.45,8.57,4,3.5-5.64,1.58-9.31S94.67,97.72,91.87,99.19Z" transform="translate(17.46)"/><path class="cls-3" d="M216.6,87.29c-1.45-10.31-9-17.76-16.88-16.65S186.66,81,188.11,91.3s9,17.76,16.88,16.65S218.06,97.58,216.6,87.29Z" transform="translate(17.46)"/><path class="cls-3" d="M206.2,62.77c4.6-2.73,5.45-9.84,1.87-15.87s-10.19-8.71-14.8-6-5.45,9.82-1.88,15.86S201.58,65.49,206.2,62.77Z" transform="translate(17.46)"/><path class="cls-3" d="M188.92,61.81c-2.11-3.56-6-5.14-8.75-3.54s-3.22,5.81-1.11,9.38,6,5.14,8.75,3.54S191,65.38,188.92,61.81Z" transform="translate(17.46)"/><path class="cls-4" d="M151.64,75.57c-21.44-17.41-29.84-43.9-18.71-59.19s37.54-13.58,59,3.81,29.82,43.92,18.7,59.19S173.09,93,151.64,75.57Z" transform="translate(17.46)"/><path class="cls-5" d="M64.35,102.85c2.85-9.31,17.29-5.45,32.29,8.63s24.83,33,22,42.37-17.27,5.45-32.27-8.63S61.52,112.16,64.35,102.85Z" transform="translate(17.46)"/><path class="cls-6" d="M55.41,54.27A72.88,72.88,0,0,1,126.22,110,47.39,47.39,0,1,1,146.82,200H55.41a72.87,72.87,0,1,1,0-145.73Z" transform="translate(17.46)"/><path class="cls-7" d="M46.08,123.89c19-15.39,26.38-38.82,16.54-52.34s-33.2-12-52.18,3.37S-15.93,113.76-6.1,127.27,27.11,139.28,46.08,123.89Z" transform="translate(17.46)"/><path class="cls-8" d="M141.55,143.89c10.43-8.47,14.5-21.34,9.09-28.77S132.4,108.51,122,117s-14.49,21.34-9.09,28.77S131.12,152.34,141.55,143.89Z" transform="translate(17.46)"/><path class="cls-9" d="M164.69,162.32c11.47-11.6,23.31-16.14,26.47-10.14s-3.6,20.27-15.07,31.87-23.32,16.14-26.47,10.14S153.22,173.92,164.69,162.32Z" transform="translate(17.46)"/></g></g></svg>