<svg xmlns="http://www.w3.org/2000/svg" xmlns:xlink="http://www.w3.org/1999/xlink" viewBox="0 0 232.03 200"><defs><style>.cls-1{isolation:isolate;}.cls-2{fill:url(#radial-gradient);}.cls-11,.cls-13,.cls-15,.cls-3,.cls-4,.cls-5,.cls-7,.cls-8,.cls-9{mix-blend-mode:overlay;}.cls-3{opacity:0.5;fill:url(#radial-gradient-2);}.cls-4{opacity:0.3;fill:url(#radial-gradient-3);}.cls-5,.cls-9{opacity:0.2;}.cls-5{fill:url(#Degradado_sin_nombre_34);}.cls-6{fill:url(#radial-gradient-4);}.cls-7{fill:url(#radial-gradient-5);}.cls-8{opacity:0.4;fill:url(#radial-gradient-6);}.cls-9{fill:url(#Degradado_sin_nombre_34-2);}.cls-10{fill:url(#radial-gradient-7);}.cls-11{fill:url(#radial-gradient-8);}.cls-12{fill:url(#radial-gradient-9);}.cls-13{fill:url(#radial-gradient-10);}.cls-14{fill:url(#radial-gradient-11);}.cls-15{fill:url(#radial-gradient-12);}</style><radialGradient id="radial-gradient" cx="1412.21" cy="17.56" r="158.79" gradientTransform="matrix(-1, 0, 0, 1, 1485.19, 0)" gradientUnits="userSpaceOnUse"><stop offset="0" stop-color="#bad0d6"/><stop offset="0.2" stop-color="#9bbac2"/><stop offset="1" stop-color="#5d8bb8"/></radialGradient><radialGradient id="radial-gradient-2" cx="545.34" cy="-2317.97" r="18.63" gradientTransform="matrix(0.84, 1.15, 1.62, -1.31, 3367.35, -3632.05)" gradientUnits="userSpaceOnUse"><stop offset="0" stop-color="#fff"/><stop offset="0.1" stop-color="#fff" stop-opacity="0.85"/><stop offset="0.29" stop-color="#fff" stop-opacity="0.59"/><stop offset="0.47" stop-color="#fff" stop-opacity="0.38"/><stop offset="0.63" stop-color="#fff" stop-opacity="0.22"/><stop offset="0.78" stop-color="#fff" stop-opacity="0.1"/><stop offset="0.91" stop-color="#fff" stop-opacity="0.03"/><stop offset="1" stop-color="#fff" stop-opacity="0"/></radialGradient><radialGradient id="radial-gradient-3" cx="600.34" cy="-2290.37" r="10.24" xlink:href="#radial-gradient-2"/><radialGradient id="Degradado_sin_nombre_34" cx="1449.69" cy="121.02" r="10.71" gradientTransform="matrix(-0.71, -0.46, -1.4, 1.83, 1390.16, 547.21)" xlink:href="#radial-gradient-2"/><radialGradient id="radial-gradient-4" cx="1458.45" cy="52.13" r="158.79" gradientTransform="matrix(-1, 0, 0, 1, 1485.19, 0)" gradientUnits="userSpaceOnUse"><stop offset="0" stop-color="#fff"/><stop offset="0.2" stop-color="#d9f7ff"/><stop offset="1" stop-color="#89c0f5"/></radialGradient><radialGradient id="radial-gradient-5" cx="543.74" cy="-2345.71" r="18.63" xlink:href="#radial-gradient-2"/><radialGradient id="radial-gradient-6" cx="598.75" cy="-2318.11" r="10.24" xlink:href="#radial-gradient-2"/><radialGradient id="Degradado_sin_nombre_34-2" cx="1496.38" cy="174.72" r="10.71" gradientTransform="matrix(-0.71, -0.46, -1.4, 1.83, 1452.02, 504.84)" xlink:href="#radial-gradient-2"/><radialGradient id="radial-gradient-7" cx="-202.96" cy="121.87" r="22.28" gradientTransform="translate(272.71 189.2) rotate(30)" gradientUnits="userSpaceOnUse"><stop offset="0" stop-color="#d4f6ff"/><stop offset="0.2" stop-color="#d9f7ff"/><stop offset="1" stop-color="#89c0f5"/></radialGradient><radialGradient id="radial-gradient-8" cx="1303.24" cy="-1713.18" r="3.49" gradientTransform="matrix(-1.3, 0.58, -0.75, -1.95, 459.08, -3897.13)" xlink:href="#radial-gradient-2"/><radialGradient id="radial-gradient-9" cx="-169.42" cy="102.51" r="22.28" xlink:href="#radial-gradient-7"/><radialGradient id="radial-gradient-10" cx="1277.85" cy="-1720.74" r="3.49" gradientTransform="matrix(-1.3, 0.58, -0.75, -1.95, 459.08, -3897.13)" xlink:href="#radial-gradient-2"/><radialGradient id="radial-gradient-11" cx="-135.88" cy="83.14" r="22.28" xlink:href="#radial-gradient-7"/><radialGradient id="radial-gradient-12" cx="1252.46" cy="-1728.3" r="3.49" gradientTransform="matrix(-1.3, 0.58, -0.75, -1.95, 459.08, -3897.13)" xlink:href="#radial-gradient-2"/></defs><g class="cls-1"><g id="Rain1"><path class="cls-2" d="M97,0a64,64,0,0,1,62.16,48.88,41.59,41.59,0,1,1,18.08,79H97A64,64,0,0,1,97,0Z" transform="translate(13.24)"/><path class="cls-3" d="M88.77,61.11C105.41,47.6,111.92,27,103.29,15.17s-29.14-10.54-45.8,3S34.34,52.21,43,64.08,72.11,74.61,88.77,61.11Z" transform="translate(13.24)"/><path class="cls-4" d="M172.56,78.66c9.15-7.43,12.73-18.73,8-25.25s-16-5.8-25.17,1.62-12.72,18.74-8,25.25S163.41,86.08,172.56,78.66Z" transform="translate(13.24)"/><path class="cls-5" d="M192.86,94.83c10.07-10.18,20.47-14.16,23.24-8.89s-3.16,17.78-13.23,28-20.47,14.16-23.23,8.89S182.8,105,192.86,94.83Z" transform="translate(13.24)"/><path class="cls-6" d="M50.72,34.58a64,64,0,0,1,62.15,48.87,41.59,41.59,0,1,1,18.08,79H50.72a64,64,0,1,1,0-127.9Z" transform="translate(13.24)"/><path class="cls-7" d="M42.53,95.69C59.18,82.18,65.68,61.61,57.05,49.74s-29.14-10.54-45.8,3-23.14,34.09-14.52,46S25.88,109.19,42.53,95.69Z" transform="translate(13.24)"/><path class="cls-8" d="M126.32,113.23c9.15-7.42,12.73-18.73,8-25.25s-16-5.79-25.17,1.63-12.72,18.73-8,25.25S117.17,120.66,126.32,113.23Z" transform="translate(13.24)"/><path class="cls-9" d="M146.63,129.41c10.07-10.18,20.46-14.16,23.23-8.9s-3.16,17.79-13.23,28-20.46,14.16-23.23,8.89S136.56,139.59,146.63,129.41Z" transform="translate(13.24)"/><path class="cls-10" d="M48.4,195.37a9.26,9.26,0,1,1-16-9.26c2.56-4.43,18.38-13.31,18.38-13.31S51,190.94,48.4,195.37Z" transform="translate(13.24)"/><path class="cls-11" d="M32.63,193.83c-1.43-3.75-.56-7.7,1.95-8.81s5.72,1,7.15,4.77.56,7.7-1.95,8.81S34.07,197.58,32.63,193.83Z" transform="translate(13.24)"/><path class="cls-12" d="M87.13,195.37a9.26,9.26,0,1,1-16-9.26c2.56-4.43,18.38-13.31,18.38-13.31S89.69,190.94,87.13,195.37Z" transform="translate(13.24)"/><path class="cls-13" d="M71.36,193.83c-1.43-3.75-.56-7.7,2-8.81s5.72,1,7.15,4.77.56,7.7-1.95,8.81S72.8,197.58,71.36,193.83Z" transform="translate(13.24)"/><path class="cls-14" d="M125.86,195.37a9.26,9.26,0,1,1-16-9.26c2.56-4.43,18.37-13.31,18.37-13.31S128.42,190.94,125.86,195.37Z" transform="translate(13.24)"/><path class="cls-15" d="M110.09,193.83c-1.43-3.75-.57-7.7,2-8.81s5.72,1,7.15,4.77.56,7.7-2,8.81S111.53,197.58,110.09,193.83Z" transform="translate(13.24)"/></g></g></svg>