<svg xmlns="http://www.w3.org/2000/svg" xmlns:xlink="http://www.w3.org/1999/xlink" viewBox="0 0 223.83 200"><defs><style>.cls-1{isolation:isolate;}.cls-2{fill:url(#radial-gradient);}.cls-3{fill:#b0b1b6;}.cls-11,.cls-13,.cls-15,.cls-4,.cls-5,.cls-7,.cls-8,.cls-9{mix-blend-mode:overlay;}.cls-4{fill:url(#radial-gradient-2);}.cls-5{opacity:0.4;fill:url(#Degradado_sin_nombre_34);}.cls-6{fill:url(#radial-gradient-3);}.cls-7{opacity:0.5;fill:url(#radial-gradient-4);}.cls-8{opacity:0.3;fill:url(#radial-gradient-5);}.cls-9{opacity:0.2;fill:url(#Degradado_sin_nombre_34-2);}.cls-10{fill:url(#radial-gradient-6);}.cls-11{fill:url(#radial-gradient-7);}.cls-12{fill:url(#radial-gradient-8);}.cls-13{fill:url(#radial-gradient-9);}.cls-14{fill:url(#radial-gradient-10);}.cls-15{fill:url(#radial-gradient-11);}</style><radialGradient id="radial-gradient" cx="-128.56" cy="29.24" r="148.83" gradientTransform="matrix(-1, 0, 0, 1, 25.67, 0)" gradientUnits="userSpaceOnUse"><stop offset="0" stop-color="#fcfcfc"/><stop offset="0.16" stop-color="#f1edf5"/><stop offset="1" stop-color="#9fa1a6"/></radialGradient><radialGradient id="radial-gradient-2" cx="1098.52" cy="-1835.56" r="22.34" gradientTransform="matrix(-0.84, 1.15, -1.62, -1.31, -1882.16, -3632.05)" gradientUnits="userSpaceOnUse"><stop offset="0" stop-color="#fff"/><stop offset="0.1" stop-color="#fff" stop-opacity="0.85"/><stop offset="0.29" stop-color="#fff" stop-opacity="0.59"/><stop offset="0.47" stop-color="#fff" stop-opacity="0.38"/><stop offset="0.63" stop-color="#fff" stop-opacity="0.22"/><stop offset="0.78" stop-color="#fff" stop-opacity="0.1"/><stop offset="0.91" stop-color="#fff" stop-opacity="0.03"/><stop offset="1" stop-color="#fff" stop-opacity="0"/></radialGradient><radialGradient id="Degradado_sin_nombre_34" cx="-2941.51" cy="2969.43" r="21.56" gradientTransform="matrix(-1.17, -1.1, 0.22, -0.73, -4013.51, -955.63)" xlink:href="#radial-gradient-2"/><radialGradient id="radial-gradient-3" cx="1451.92" cy="69.12" r="168.38" gradientTransform="matrix(-1, 0, 0, 1, 1485.19, 0)" gradientUnits="userSpaceOnUse"><stop offset="0" stop-color="#bad0d6"/><stop offset="0.2" stop-color="#9bbac2"/><stop offset="1" stop-color="#5d8bb8"/></radialGradient><radialGradient id="radial-gradient-4" cx="556.62" cy="-2348.35" r="19.76" gradientTransform="matrix(0.84, 1.15, 1.62, -1.31, 3367.35, -3632.05)" xlink:href="#radial-gradient-2"/><radialGradient id="radial-gradient-5" cx="614.95" cy="-2319.08" r="10.86" gradientTransform="matrix(0.84, 1.15, 1.62, -1.31, 3367.35, -3632.05)" xlink:href="#radial-gradient-2"/><radialGradient id="Degradado_sin_nombre_34-2" cx="1475.91" cy="200.02" r="11.35" gradientTransform="matrix(-0.71, -0.46, -1.4, 1.83, 1487.04, 471.37)" xlink:href="#radial-gradient-2"/><radialGradient id="radial-gradient-6" cx="-197.68" cy="116.72" r="28.31" gradientTransform="translate(272.71 189.2) rotate(30)" gradientUnits="userSpaceOnUse"><stop offset="0" stop-color="#d4f6ff"/><stop offset="0.2" stop-color="#d9f7ff"/><stop offset="1" stop-color="#89c0f5"/></radialGradient><radialGradient id="radial-gradient-7" cx="1297.79" cy="-1713.66" r="4.43" gradientTransform="matrix(-1.3, 0.58, -0.75, -1.95, 459.08, -3897.13)" xlink:href="#radial-gradient-2"/><radialGradient id="radial-gradient-8" cx="-154.81" cy="91.96" r="28.31" xlink:href="#radial-gradient-6"/><radialGradient id="radial-gradient-9" cx="1265.34" cy="-1723.33" r="4.43" gradientTransform="matrix(-1.3, 0.58, -0.75, -1.95, 459.08, -3897.13)" xlink:href="#radial-gradient-2"/><radialGradient id="radial-gradient-10" cx="-111.94" cy="67.21" r="28.31" xlink:href="#radial-gradient-6"/><radialGradient id="radial-gradient-11" cx="1232.88" cy="-1732.99" r="4.43" gradientTransform="matrix(-1.3, 0.58, -0.75, -1.95, 459.08, -3897.13)" xlink:href="#radial-gradient-2"/></defs><g class="cls-1"><g id="Moon-Rain"><path class="cls-2" d="M57.91,78.4A78.4,78.4,0,1,0,136.31,0,78.4,78.4,0,0,0,57.91,78.4Z" transform="translate(9.12)"/><path class="cls-3" d="M81.52,92.27c7.37-.66,12.64-9,11.77-18.67S85.75,56.68,78.38,57.34,65.75,66.36,66.62,76,74.16,92.93,81.52,92.27Z" transform="translate(9.12)"/><path class="cls-3" d="M75.14,99.28c-4.42,2.32-5.53,8.88-2.5,14.66s9.07,8.58,13.49,6.27,5.52-8.88,2.49-14.66S79.55,97,75.14,99.28Z" transform="translate(9.12)"/><path class="cls-3" d="M92.62,92.31C90,93.69,89.36,97.56,91.15,101s5.36,5.07,8,3.7,3.26-5.24,1.47-8.66S95.23,91,92.62,92.31Z" transform="translate(9.12)"/><path class="cls-3" d="M208.72,81.24c-1.36-9.6-8.39-16.53-15.72-15.5S180.85,75.39,182.2,85s8.39,16.52,15.71,15.49S210.07,90.82,208.72,81.24Z" transform="translate(9.12)"/><path class="cls-3" d="M199,58.42c4.29-2.54,5.07-9.16,1.75-14.77s-9.49-8.11-13.78-5.58-5.07,9.15-1.75,14.77S194.74,61,199,58.42Z" transform="translate(9.12)"/><path class="cls-3" d="M183,57.53c-2-3.32-5.6-4.79-8.14-3.3s-3,5.41-1,8.73,5.61,4.79,8.15,3.29S184.92,60.85,183,57.53Z" transform="translate(9.12)"/><path class="cls-4" d="M148.25,70.34c-19.95-16.21-27.76-40.87-17.41-55.1s34.94-12.64,54.92,3.55,27.74,40.87,17.4,55.09S168.21,86.53,148.25,70.34Z" transform="translate(9.12)"/><path class="cls-5" d="M67,95.72c2.65-8.67,16.09-5.07,30.05,8s23.11,30.76,20.48,39.44-16.08,5.07-30.05-8S64.38,104.39,67,95.72Z" transform="translate(9.12)"/><path class="cls-6" d="M58.69,50.51a67.83,67.83,0,0,1,65.91,51.82,44.1,44.1,0,1,1,19.17,83.81H58.69a67.82,67.82,0,0,1,0-135.63Z" transform="translate(9.12)"/><path class="cls-7" d="M50,115.31C67.66,101,74.56,79.17,65.41,66.59S34.5,55.41,16.84,69.72-7.7,105.88,1.45,118.45,32.35,129.63,50,115.31Z" transform="translate(9.12)"/><path class="cls-8" d="M138.87,133.91c9.7-7.87,13.49-19.86,8.46-26.77s-17-6.15-26.7,1.72-13.48,19.87-8.46,26.78S129.16,141.79,138.87,133.91Z" transform="translate(9.12)"/><path class="cls-9" d="M160.4,151.07c10.67-10.8,21.69-15,24.63-9.44s-3.35,18.87-14,29.67-21.71,15-24.64,9.43S149.72,161.87,160.4,151.07Z" transform="translate(9.12)"/><path class="cls-10" d="M58.91,194.12a11.77,11.77,0,0,1-20.38-11.77c3.25-5.63,23.34-16.9,23.34-16.9S62.16,188.49,58.91,194.12Z" transform="translate(9.12)"/><path class="cls-11" d="M38.87,192.16c-1.82-4.76-.72-9.78,2.48-11.2s7.26,1.29,9.09,6.06.71,9.79-2.48,11.2S40.7,196.93,38.87,192.16Z" transform="translate(9.12)"/><path class="cls-12" d="M108.41,194.12A11.77,11.77,0,0,1,88,182.35c3.25-5.63,23.35-16.9,23.35-16.9S111.66,188.49,108.41,194.12Z" transform="translate(9.12)"/><path class="cls-13" d="M88.37,192.16c-1.82-4.76-.71-9.78,2.48-11.2s7.26,1.29,9.09,6.06.71,9.79-2.48,11.2S90.2,196.93,88.37,192.16Z" transform="translate(9.12)"/><path class="cls-14" d="M157.91,194.12a11.77,11.77,0,0,1-20.38-11.77c3.26-5.63,23.35-16.9,23.35-16.9S161.16,188.49,157.91,194.12Z" transform="translate(9.12)"/><path class="cls-15" d="M137.88,192.16c-1.82-4.76-.72-9.78,2.48-11.2s7.26,1.29,9.08,6.06.72,9.79-2.48,11.2S139.7,196.93,137.88,192.16Z" transform="translate(9.12)"/></g></g></svg>