<svg id="Capa_18" data-name="Capa 18" xmlns="http://www.w3.org/2000/svg" xmlns:xlink="http://www.w3.org/1999/xlink" viewBox="0 0 182.1 198.53"><defs><style>.cls-1,.cls-10,.cls-11,.cls-12,.cls-13,.cls-14,.cls-15,.cls-16,.cls-17,.cls-18,.cls-19,.cls-2,.cls-3,.cls-4,.cls-5,.cls-6,.cls-7,.cls-8,.cls-9{fill:none;stroke-linecap:round;stroke-miterlimit:10;stroke-width:12px;}.cls-1{stroke:url(#linear-gradient);}.cls-2{stroke:url(#linear-gradient-2);}.cls-3{stroke:url(#linear-gradient-3);}.cls-4{stroke:url(#linear-gradient-4);}.cls-5{stroke:url(#linear-gradient-5);}.cls-6{stroke:url(#linear-gradient-6);}.cls-7{stroke:url(#linear-gradient-7);}.cls-8{stroke:url(#linear-gradient-8);}.cls-9{stroke:url(#linear-gradient-9);}.cls-10{stroke:url(#linear-gradient-10);}.cls-11{stroke:url(#linear-gradient-11);}.cls-12{stroke:url(#linear-gradient-12);}.cls-13{stroke:url(#linear-gradient-13);}.cls-14{stroke:url(#linear-gradient-14);}.cls-15{stroke:url(#linear-gradient-15);}.cls-16{stroke:url(#linear-gradient-16);}.cls-17{stroke:url(#linear-gradient-17);}.cls-18{stroke:url(#linear-gradient-18);}.cls-19{stroke:url(#linear-gradient-19);}</style><linearGradient id="linear-gradient" x1="-156.64" y1="-156.57" x2="-144.64" y2="-156.57" gradientTransform="translate(296.43 31.42) rotate(-45)" gradientUnits="userSpaceOnUse"><stop offset="0" stop-color="#fff"/><stop offset="0.2" stop-color="#d9f7ff"/><stop offset="1" stop-color="#89c0f5"/></linearGradient><linearGradient id="linear-gradient-2" x1="-39.44" y1="-39.37" x2="-27.44" y2="-39.37" gradientTransform="matrix(-0.71, -0.71, -0.71, 0.71, 52.37, 31.42)" xlink:href="#linear-gradient"/><linearGradient id="linear-gradient-3" x1="85.29" y1="39.48" x2="97.29" y2="39.48" gradientTransform="matrix(1, 0, 0, 1, 0, 0)" xlink:href="#linear-gradient"/><linearGradient id="linear-gradient-4" x1="397.29" y1="-710.5" x2="409.29" y2="-710.5" gradientTransform="matrix(0.71, 0.71, 0.71, -0.71, 296.43, -616.26)" xlink:href="#linear-gradient"/><linearGradient id="linear-gradient-5" x1="514.49" y1="-593.3" x2="526.49" y2="-593.3" gradientTransform="translate(52.37 -616.26) rotate(135)" xlink:href="#linear-gradient"/><linearGradient id="linear-gradient-6" x1="95.4" y1="-742.9" x2="107.4" y2="-742.9" gradientTransform="matrix(1, 0, 0, -1, -10.12, -583.85)" xlink:href="#linear-gradient"/><linearGradient id="linear-gradient-7" x1="169.33" y1="23.28" x2="181.33" y2="23.28" gradientTransform="translate(-15.81 -14.88) rotate(15)" xlink:href="#linear-gradient"/><linearGradient id="linear-gradient-8" x1="-219.53" y1="-364.9" x2="-207.53" y2="-364.9" gradientTransform="matrix(0.26, -0.97, -0.97, -0.26, -137.84, -226.24)" xlink:href="#linear-gradient"/><linearGradient id="linear-gradient-9" x1="453.06" y1="-62.84" x2="465.06" y2="-62.84" gradientTransform="matrix(0.5, 0.87, -0.87, 0.5, -141.01, -296.57)" xlink:href="#linear-gradient"/><linearGradient id="linear-gradient-10" x1="577.14" y1="-384.54" x2="589.14" y2="-384.54" gradientTransform="matrix(-0.26, 0.97, 0.97, 0.26, 545.1, -338.72)" xlink:href="#linear-gradient"/><linearGradient id="linear-gradient-11" x1="188.96" y1="-773.39" x2="200.96" y2="-773.39" gradientTransform="matrix(-0.97, -0.26, 0.26, -0.97, 423.07, -550.08)" xlink:href="#linear-gradient"/><linearGradient id="linear-gradient-12" x1="453.06" y1="-639.58" x2="465.06" y2="-639.58" gradientTransform="matrix(0.5, 0.87, 0.87, -0.5, 363.75, -587.99)" xlink:href="#linear-gradient"/><linearGradient id="linear-gradient-13" x1="-163.87" y1="-528.79" x2="-151.87" y2="-528.79" gradientTransform="matrix(-0.26, -0.97, 0.97, -0.26, 492.65, -215.85)" xlink:href="#linear-gradient"/><linearGradient id="linear-gradient-14" x1="333.21" y1="-32.39" x2="345.21" y2="-32.39" gradientTransform="matrix(-0.97, 0.26, 0.26, 0.97, 370.62, -4.48)" xlink:href="#linear-gradient"/><linearGradient id="linear-gradient-15" x1="-172.91" y1="-217.61" x2="-160.91" y2="-217.61" gradientTransform="matrix(0.5, -0.87, 0.87, 0.5, 311.3, 33.43)" xlink:href="#linear-gradient"/><linearGradient id="linear-gradient-16" x1="25.08" y1="-717.73" x2="37.08" y2="-717.73" gradientTransform="matrix(0.97, -0.26, -0.26, -0.97, -68.26, -539.69)" xlink:href="#linear-gradient"/><linearGradient id="linear-gradient-17" x1="521.48" y1="-220.65" x2="533.48" y2="-220.65" gradientTransform="translate(-190.29 -328.33) rotate(75)" xlink:href="#linear-gradient"/><linearGradient id="linear-gradient-18" x1="-172.91" y1="-484.81" x2="-160.91" y2="-484.81" gradientTransform="matrix(0.5, -0.87, -0.87, -0.5, -193.46, -258)" xlink:href="#linear-gradient"/><linearGradient id="linear-gradient-19" x1="58.98" y1="99.26" x2="123.59" y2="99.26" gradientTransform="matrix(1, 0, 0, 1, 0, 0)" xlink:href="#linear-gradient"/></defs><line class="cls-1" x1="66.95" y1="14.97" x2="91.46" y2="39.48"/><line class="cls-2" x1="116.11" y1="14.97" x2="91.6" y2="39.48"/><line class="cls-3" x1="91.29" y1="6" x2="91.29" y2="72.96"/><line class="cls-4" x1="66.95" y1="183.56" x2="91.46" y2="159.05"/><line class="cls-5" x1="116.11" y1="183.56" x2="91.6" y2="159.05"/><line class="cls-6" x1="91.29" y1="192.53" x2="91.29" y2="125.57"/><line class="cls-7" x1="152" y1="36.25" x2="143.03" y2="69.73"/><line class="cls-8" x1="176.1" y1="78.95" x2="142.62" y2="69.97"/><line class="cls-9" x1="171.94" y1="52.83" x2="113.95" y2="86.31"/><line class="cls-10" x1="6" y1="120.54" x2="39.48" y2="129.51"/><line class="cls-11" x1="30.1" y1="163.24" x2="39.07" y2="129.76"/><line class="cls-12" x1="10.4" y1="146.1" x2="68.39" y2="112.62"/><line class="cls-13" x1="6" y1="77.99" x2="39.48" y2="69.02"/><line class="cls-14" x1="30.1" y1="35.29" x2="39.07" y2="68.77"/><line class="cls-15" x1="10.4" y1="52.43" x2="68.39" y2="85.91"/><line class="cls-16" x1="152" y1="162.28" x2="143.03" y2="128.8"/><line class="cls-17" x1="176.1" y1="119.58" x2="142.62" y2="128.56"/><line class="cls-18" x1="171.94" y1="145.7" x2="113.95" y2="112.22"/><circle class="cls-19" cx="91.29" cy="99.26" r="26.31"/></svg>